<?xml version="1.0" standalone="no"?>
<!DOCTYPE svg PUBLIC "-//W3C//DTD SVG 20010904//EN"
 "http://www.w3.org/TR/2001/REC-SVG-20010904/DTD/svg10.dtd">
<svg version="1.0" xmlns="http://www.w3.org/2000/svg"
 width="700.000000pt" height="700.000000pt" viewBox="0 0 700.000000 700.000000"
 preserveAspectRatio="xMidYMid meet">
<metadata>
Created by potrace 1.14, written by Peter Selinger 2001-2017
</metadata>
<g transform="translate(0.000000,700.000000) scale(0.100000,-0.100000)"
fill="#000000" stroke="none">
<path d="M3245 5759 c-22 -4 -74 -12 -115 -19 -131 -21 -337 -76 -425 -115
-16 -7 -55 -23 -85 -36 -369 -154 -718 -451 -951 -807 -67 -103 -189 -338
-189 -364 0 -8 -4 -18 -9 -23 -10 -12 -64 -175 -86 -265 -47 -183 -60 -315
-59 -560 1 -157 17 -328 38 -405 2 -5 7 -28 11 -50 11 -48 10 -46 17 -65 3 -8
14 -44 24 -80 41 -146 148 -383 225 -498 16 -24 29 -46 29 -49 0 -3 38 -55 84
-117 198 -263 456 -481 740 -625 124 -63 160 -79 261 -115 131 -46 266 -82
349 -92 22 -3 43 -7 46 -9 17 -11 175 -20 340 -20 188 0 287 8 386 30 12 3 39
7 60 11 64 10 263 70 356 108 94 38 232 105 227 111 -2 1 -26 -1 -54 -5 -55
-9 -356 -5 -420 5 -57 9 -221 50 -280 70 -182 62 -358 176 -511 330 -96 97
-120 130 -107 148 168 217 257 333 259 336 2 2 17 5 34 6 26 2 38 -7 92 -69
230 -263 431 -369 698 -370 126 0 180 7 255 33 188 66 289 226 281 445 -9 267
-149 436 -682 821 -84 60 -255 194 -294 229 -184 168 -275 271 -359 411 -74
124 -139 298 -157 420 -22 156 -22 304 1 445 36 224 161 461 323 612 50 47
207 158 224 158 22 0 5 16 -19 18 -16 1 -41 5 -58 8 -48 9 -456 12 -500 3z"/>
<path d="M4281 5389 c-100 -25 -154 -54 -207 -111 -59 -63 -85 -125 -91 -219
-10 -131 31 -243 129 -356 74 -85 213 -204 363 -309 39 -27 75 -52 80 -57 6
-4 73 -53 150 -108 358 -259 570 -481 694 -727 81 -162 132 -359 135 -529 0
-24 4 -43 8 -43 5 0 8 2 8 5 0 3 13 56 29 118 17 61 33 135 36 162 4 28 8 52
10 55 26 45 27 571 0 670 -2 8 -6 37 -10 64 -3 27 -8 52 -10 56 -2 4 -6 17 -8
31 -18 98 -87 298 -146 424 -111 236 -243 426 -426 611 -168 171 -240 218
-395 261 -86 23 -261 24 -349 2z"/>
</g>
</svg>
