<svg xmlns="http://www.w3.org/2000/svg" version="1.1" xmlns:xlink="http://www.w3.org/1999/xlink" xmlns:svgjs="http://svgjs.com/svgjs" width="144" height="144"><svg version="1.1" id="SvgjsSvg1000" xmlns="http://www.w3.org/2000/svg" xmlns:xlink="http://www.w3.org/1999/xlink" x="0px" y="0px" viewBox="0 0 144 144" style="enable-background:new 0 0 144 144;" xml:space="preserve">
<style type="text/css">
	.st0{fill:#1F2937;}
</style>
<g>
	<g>
		<g>
			<path class="st0" d="M116.27,69.85c0-14.34-6.78-27.09-17.3-35.24c-2.35-1.29-4.92-1.86-7.64-1.86c-5.58,0-9.5,2.61-9.5,7.96
				c0,13.54,32.07,17.46,32.07,43.47c0,0,0,0.01,0,0.01C115.43,79.69,116.27,74.87,116.27,69.85z"></path>
		</g>
	</g>
	<g>
		<g>
			<path class="st0" d="M71.49,90.59c4.28,5.58,9.03,9.15,15.92,9.15c6.53,0,10.69-3.21,10.69-9.62c0-15.68-31.12-18.53-31.12-43.59
				c0-9.01,4.26-16.75,12.06-20.63c-2.39-0.4-4.84-0.61-7.33-0.61c-24.61,0-44.56,19.95-44.56,44.56
				c0,24.61,19.95,44.56,44.56,44.56c7.84,0,15.2-2.03,21.61-5.59c-1.7,0.27-3.47,0.41-5.3,0.41c-10.33,0-18.29-4.39-23.52-11.28
				l5.7-7.36H71.49z"></path>
		</g>
	</g>
</g>
</svg><style>@media (prefers-color-scheme: light) { :root { filter: none; } }
@media (prefers-color-scheme: dark) { :root { filter: invert(100%); } }
</style></svg>